<?xml version="1.0" encoding="utf-8"?>
<!-- Generator: Adobe Illustrator 19.0.0, SVG Export Plug-In . SVG Version: 6.00 Build 0)  -->
<svg version="1.1" id="Livello_1" xmlns="http://www.w3.org/2000/svg" xmlns:xlink="http://www.w3.org/1999/xlink" x="0px" y="0px"
	 viewBox="-2409 1510.8 180.2 180.2" style="enable-background:new -2409 1510.8 180.2 180.2;" xml:space="preserve">
<style type="text/css">
	.st0{fill:#FFFFFF;}
	.st1{fill:#1D1E21;}
</style>
<rect x="-2409" y="1510.8" class="st0" width="180.2" height="180.2"/>
<path class="st1" d="M-2261.9,1595.5c4.5-2.9,8.8-5.9,13.2-8.8c0-0.3,0-0.6,0-0.9c-1-3.4-2-6.9-3.4-10.2c-0.5-1.2-1.1-1.6-2.4-1.6
	c-5.1,0.2-10.1,0.3-15.2,0.4c-0.7,0-1.1-0.2-1.5-0.7c-1.7-2.5-3.4-5-5.4-7.2c-0.5-0.6-0.2-1.1,0-1.6c1.7-4.7,3.4-9.4,5.2-14.1
	c0.4-1.1,0.3-1.7-0.7-2.5c-2.8-2.3-5.8-4.4-8.8-6.3c-0.8-0.5-1.4-0.4-2.1,0.1c-4,3-8,6-11.9,9c-0.8,0.6-1.6,0.8-2.6,0.4
	c-2.5-1.1-5.1-1.8-7.7-2.5c-0.9-0.2-1.4-0.7-1.6-1.6c-1.4-4.8-2.9-9.5-4.3-14.2c-0.3-1.1-0.8-1.6-2-1.7c-3.5-0.3-7-0.2-10.5-0.1
	c-1.3,0-2,0.5-2.3,1.9c-1.3,4.6-2.7,9.1-4.1,13.7c-0.3,1.1-0.8,1.6-1.9,1.8c-2.8,0.6-5.4,1.5-8,2.5c-0.8,0.3-1.4,0.2-2.1-0.3
	c-4-3.1-8.1-6.1-12.1-9.2c-0.8-0.6-1.5-0.7-2.4-0.2c-3,1.9-6,4-8.8,6.2c-0.9,0.7-1,1.3-0.6,2.3c1.7,4.6,3.3,9.2,5,13.7
	c0.4,1,0.3,1.8-0.5,2.6c-1.9,2-3.5,4.2-4.9,6.6c-0.5,0.9-1.2,1.2-2.2,1.2c-5.1-0.2-10.3-0.2-15.4-0.4c-0.8,0-1.3,0.2-1.6,1
	c-1.4,3.2-2.4,6.5-3.4,9.8c-0.1,0.2-0.1,0.4-0.2,0.5c0,0.3,0,0.6,0,0.9c4.4,3,8.8,6,13.2,8.9c1.1,0.7,1.6,1.5,1.4,2.9
	c-0.3,2.1-0.2,4.2,0.1,6.3c0.2,1.4-0.2,2.3-1.4,3.1c-4.5,2.9-8.8,5.9-13.2,8.8c0,0.3,0,0.6,0,0.9c1,3.4,2.1,6.9,3.4,10.2
	c0.5,1.2,1.1,1.6,2.4,1.6c5.1-0.2,10.1-0.3,15.2-0.4c0.7,0,1.1,0.2,1.5,0.7c1.7,2.5,3.4,5,5.4,7.2c0.5,0.6,0.2,1.1,0,1.6
	c-1.7,4.7-3.4,9.4-5.2,14.1c-0.4,1.1-0.2,1.7,0.7,2.5c2.8,2.3,5.7,4.3,8.8,6.3c0.8,0.5,1.4,0.5,2.2-0.1c4-3.1,8-6,12-9.1
	c0.8-0.6,1.4-0.7,2.3-0.3c2.3,1,4.7,1.8,7.1,2.3c1.4,0.3,2.1,1,2.5,2.4c1.2,4.3,2.6,8.5,3.8,12.8c0.4,1.5,1,2.7,2.8,2.6
	c3.7,0,7.3,0,11,0c0.8-0.2,1-0.7,1.2-1.4c1.4-4.7,2.8-9.3,4.2-14c0.3-1.1,0.9-1.7,2.1-2c2.7-0.5,5.3-1.4,7.9-2.5
	c0.8-0.3,1.4-0.3,2.1,0.3c4,3.1,8.1,6.1,12.1,9.2c0.8,0.6,1.5,0.7,2.4,0.2c3.1-1.9,6-4,8.9-6.3c0.8-0.6,0.9-1.2,0.6-2.1
	c-1.7-4.6-3.4-9.2-5.1-13.8c-0.4-1-0.3-1.8,0.5-2.6c1.9-2,3.5-4.3,4.9-6.7c0.5-0.8,1.1-1.1,2-1.1c5.2,0.1,10.4,0.2,15.6,0.4
	c0.8,0,1.3-0.2,1.6-1c1.3-2.9,2.3-6,3.1-9.1c0.1-0.4,0.3-0.9,0.4-1.3c0-0.3,0-0.6,0-0.9c-4.4-3-8.8-6-13.2-8.9
	c-1.1-0.7-1.6-1.5-1.4-2.9c0.3-2.1,0.2-4.2-0.1-6.3C-2263.5,1597.2-2263.2,1596.3-2261.9,1595.5z M-2318.9,1622.8
	c-11.8,0-21.4-9.6-21.4-21.4c0-11.8,9.6-21.4,21.4-21.4c11.8,0,21.4,9.6,21.4,21.4C-2297.5,1613.2-2307.1,1622.8-2318.9,1622.8z"/>
</svg>
